<svg width="16" height="10" viewBox="0 0 16 10" fill="none" xmlns="http://www.w3.org/2000/svg">
<path d="M8.04947 1.42857C11.0479 1.42857 13.1381 3.58 14.0475 4.74C13.1634 6.05214 11.0731 8.57143 8.04947 8.57143C5.25996 8.57143 3.04476 6.04571 2.0678 4.70929C3.01005 3.53286 5.10786 1.42857 8.04947 1.42857ZM8.04947 0C3.27259 0 0.466667 4.67929 0.466667 4.67929C0.466667 4.67929 3.51809 10 8.04947 10C12.9299 10 15.6133 4.67929 15.6133 4.67929C15.6133 4.67929 12.9052 0 8.04947 0ZM8.04 3.57143C8.73612 3.57143 9.30222 4.21214 9.30222 5C9.30222 5.78786 8.73612 6.42857 8.04 6.42857C7.34389 6.42857 6.77778 5.78786 6.77778 5C6.77778 4.21214 7.34389 3.57143 8.04 3.57143ZM8.04 2.14286C6.64588 2.14286 5.51556 3.42286 5.51556 5C5.51556 6.57786 6.64588 7.85714 8.04 7.85714C9.43413 7.85714 10.5644 6.57786 10.5644 5C10.5644 3.42286 9.43413 2.14286 8.04 2.14286Z" fill="white"/>
</svg>
